<?xml version="1.0" encoding="utf-8"?>
<!-- Generator: Adobe Illustrator 23.0.1, SVG Export Plug-In . SVG Version: 6.00 Build 0)  -->
<svg version="1.1"
	 id="Calque_1" xmlns:dc="http://purl.org/dc/elements/1.1/" xmlns:rdf="http://www.w3.org/1999/02/22-rdf-syntax-ns#" xmlns:svg="http://www.w3.org/2000/svg"
	 xmlns="http://www.w3.org/2000/svg" xmlns:xlink="http://www.w3.org/1999/xlink" x="0px" y="0px" viewBox="0 0 800 200"
	 style="enable-background:new 0 0 800 200;" xml:space="preserve">
<style type="text/css">
	.st0{fill-rule:evenodd;clip-rule:evenodd;}
</style>
<path class="st0" d="M663.3,149.9c0,6.6-5.3,11.9-11.9,11.9c-6.6,0-11.9-5.3-11.9-11.9V94c0-6.6,5.3-11.9,11.9-11.9
	c6.6,0,11.9,5.3,11.9,11.9V149.9z M666.7,53.6c0,8.5-6.9,15.3-15.3,15.3c-8.5,0-15.3-6.9-15.3-15.3s6.9-15.3,15.3-15.3
	C659.9,38.2,666.7,45.1,666.7,53.6z M700.2,93.4v1.9c2.9-4.6,6.9-8.2,12.2-10.7c5.2-2.5,11.3-3.8,18.1-3.8c5,0,9.1,0.9,12.2,2.7
	c3.1,1.8,5.5,4.2,7.2,7.1c1.7,2.9,2.8,6.1,3.3,9.6c0.5,3.5,0.8,6.8,0.8,10.1v51.2h-23.7v-45.1c0-5.1-1-8.9-2.9-11.2
	c-1.9-2.3-4.5-3.5-7.6-3.5c-1.7,0-3.4,0.3-5.1,1c-1.7,0.7-3.4,1.7-4.9,2.9c-1.5,1.2-2.9,2.7-4.2,4.4c-1.3,1.7-2.3,3.5-3,5.5v46
	h-23.7V93.1v-0.3c0.1-5.7,4.6-10.3,10.3-10.5h0.8c5.6,0.2,10.1,4.7,10.3,10.2C700.2,92.6,700.2,93.4,700.2,93.4z M269.1,105.8
	c-1.7-5-4-9.3-7-13c-3-3.7-6.5-6.5-10.6-8.7C247.4,82,242.9,81,238,81c-5.9,0-11,1.3-15.3,3.8s-7.7,6-10.3,10.4v-45h0
	c0,0,0-0.1,0-0.1c0-6.5-5.3-11.8-11.8-11.8c-6.5,0-11.8,5.3-11.8,11.8c0,0,0,0.1,0,0.1h0v111.5h0.7v0h22.9v-10.2
	c2.1,2.6,4.7,4.8,7.6,6.5c4.4,2.5,9.6,3.8,15.5,3.8c5.1,0,9.9-1,14.4-3c4.4-2,8.3-4.8,11.6-8.4c3.3-3.6,5.8-7.9,7.6-12.7
	c1.8-4.9,2.7-10.2,2.7-15.8C271.6,116.1,270.8,110.8,269.1,105.8L269.1,105.8z M246,129.7c-0.9,2.4-2.1,4.5-3.8,6.3
	c-1.6,1.8-3.6,3.2-5.9,4.2c-2.3,1-4.9,1.6-7.6,1.6c-3.3,0-6.4-1-9.3-2.9c-3-1.9-5.3-4.6-7-7.9v-16.3c1.7-3.9,4.1-7.1,7.2-9.6
	c3.1-2.6,6.5-3.9,10.3-3.9c2.6,0,4.9,0.5,7,1.6c2.1,1.1,4,2.6,5.6,4.4c1.6,1.9,2.8,4.1,3.6,6.6c0.8,2.5,1.3,5.2,1.3,7.9
	C247.3,124.6,246.9,127.3,246,129.7z M395,93.6v1.9c2.9-4.6,6.9-8.2,12.2-10.7c5.2-2.5,11.3-3.8,18.1-3.8c5,0,9.1,0.9,12.2,2.7
	c3.1,1.8,5.5,4.2,7.2,7.1c1.7,2.9,2.8,6.1,3.3,9.6c0.5,3.5,0.8,6.8,0.8,10.1v51.2H425v-45.1c0-5.1-1-8.9-2.9-11.2
	c-1.9-2.3-4.5-3.5-7.6-3.5c-1.7,0-3.4,0.3-5.1,1c-1.7,0.7-3.4,1.7-4.9,2.9c-1.5,1.2-2.9,2.7-4.2,4.4c-1.3,1.7-2.3,3.5-3,5.5v46
	h-23.7V93.3V93c0.1-5.7,4.6-10.3,10.3-10.5h0.8c5.6,0.2,10.1,4.7,10.3,10.2L395,93.6L395,93.6z M167.1,93.1c-3.6-3.7-7.9-6.6-13-8.8
	c-5.1-2.2-11-3.3-17.6-3.3c-6.6,0-12.5,1.1-17.7,3.3c-5.2,2.2-9.6,5.1-13.1,8.9c-3.6,3.8-6.3,8.1-8.2,13.1c-1.9,5-2.8,10.3-2.8,15.9
	c0,4.5,0.7,8.9,2.1,13.1c-1.2,1.7-2.7,3.1-4.7,4.3c-2.5,1.4-5.2,2.2-8.2,2.2c-2.4,0-4.6-0.5-6.7-1.5c-2.1-1-4-2.4-5.6-4.1
	c-0.7-0.8-1.9-2.5-1.9-8.7V50.1c0-6.6-5.3-11.9-11.8-11.9c-6.5,0-11.8,5.3-11.8,11.8l0,83.8c0,7,4.2,12.5,7.3,15.7
	c3.6,3.7,8,6.7,13.2,8.9c1.7,0.7,3.5,1.3,5.4,1.8c3.8,1,7.8,1.5,12.2,1.5c9,0,16.6-1.9,22.9-5.8c1.2-0.7,2.2-1.5,3.3-2.2
	c2.6,1.9,5.5,3.5,8.7,4.8c5.2,2.1,11,3.2,17.6,3.2c9,0,16.7-1.9,23.1-5.8c6.4-3.9,11.2-8.8,14.2-15l-20.2-5.6
	c-0.6,1.7-1.7,3.2-3.1,4.5c-0.9,0.9-2.1,1.6-3.4,2.3c-3.2,1.7-6.5,2.5-10,2.5c-4.4,0-8.2-1.4-11.6-4.1c-3.4-2.7-5.3-6.7-5.7-11.9
	h57.5c0.2-1,0.3-2.2,0.4-3.5c0.1-1.3,0.1-2.7,0.1-4.1c0-5.3-0.9-10.4-2.7-15.3C173.4,101,170.7,96.8,167.1,93.1L167.1,93.1z
	 M119.4,114c0.5-4.8,2.2-8.7,5.3-11.6c3-2.9,6.8-4.4,11.5-4.4c4.5,0,8.3,1.4,11.4,4.3c3.1,2.9,4.8,6.8,5.3,11.7
	C152.9,114,119.4,114,119.4,114z M624,106.1c-1.9-4.9-4.6-9.2-8.2-12.9c-3.6-3.7-7.9-6.7-13-8.9c-5.1-2.2-11-3.3-17.6-3.3
	c-6.6,0-12.5,1.1-17.7,3.3c-5.2,2.2-9.6,5.2-13.1,8.9c-3.6,3.7-6.3,8-8.1,12.9c-1.8,4.9-2.7,10-2.7,15.3c0,5.3,0.9,10.5,2.7,15.3
	c1.8,4.9,4.5,9.2,8.1,12.9c3.6,3.7,7.9,6.6,13.1,8.8c5.2,2.2,11.1,3.3,17.7,3.3c6.6,0,12.5-1.1,17.7-3.3c5.2-2.2,9.6-5.1,13.1-8.8
	c3.6-3.7,6.2-8,8.1-12.9c1.8-4.9,2.7-10,2.7-15.3C626.8,116.1,625.8,111,624,106.1L624,106.1z M601,129.7c-0.9,2.5-2.1,4.7-3.6,6.4
	c-1.5,1.8-3.3,3.2-5.4,4.2c-2.1,1-4.3,1.5-6.8,1.5c-5,0-9.2-1.9-12.5-5.6c-3.3-3.7-4.9-8.6-4.9-14.8c0-3,0.4-5.7,1.3-8.2
	c0.9-2.5,2.1-4.7,3.6-6.4c1.5-1.8,3.4-3.2,5.5-4.2c2.1-1,4.4-1.5,6.9-1.5c4.9,0,9,1.9,12.3,5.6c3.3,3.7,4.9,8.6,4.9,14.7
	C602.3,124.4,601.9,127.2,601,129.7z M351.2,93.2c-3.6-3.7-7.9-6.7-13-8.9c-5.1-2.2-11-3.3-17.6-3.3c-6.6,0-12.5,1.1-17.7,3.3
	c-5.2,2.2-9.6,5.2-13.1,8.9c-3.6,3.7-6.3,8-8.1,12.9c-1.8,4.9-2.7,10-2.7,15.3c0,5.3,0.9,10.5,2.7,15.3c1.8,4.9,4.5,9.2,8.1,12.9
	c3.6,3.7,7.9,6.6,13.1,8.8c5.2,2.2,11.1,3.3,17.7,3.3c6.6,0,12.5-1.1,17.7-3.3c5.2-2.2,9.6-5.1,13.1-8.8c3.6-3.7,6.2-8,8.1-12.9
	c1.8-4.9,2.7-10,2.7-15.3c0-5.3-0.9-10.4-2.8-15.3C357.5,101.2,354.8,96.9,351.2,93.2z M336.4,129.7c-0.9,2.5-2.1,4.7-3.6,6.4
	c-1.5,1.8-3.3,3.2-5.4,4.2c-2.1,1-4.3,1.5-6.8,1.5c-5,0-9.2-1.9-12.5-5.6c-3.3-3.7-4.9-8.6-4.9-14.8c0-3,0.4-5.7,1.3-8.2
	c0.9-2.5,2.1-4.7,3.6-6.4c1.5-1.8,3.4-3.2,5.5-4.2c2.1-1,4.4-1.5,6.9-1.5c4.9,0,9,1.9,12.3,5.6c3.3,3.7,4.9,8.6,4.9,14.7
	C337.7,124.4,337.3,127.2,336.4,129.7L336.4,129.7z M509.5,139.6c-2.5,1.4-5.2,2.1-8.2,2.1c-2.4,0-4.6-0.5-6.7-1.5
	c-2.1-1-4-2.4-5.6-4.2c-1.6-1.8-2.8-3.9-3.7-6.4c-0.9-2.5-1.3-5.3-1.3-8.4c0-6.1,1.7-11,5-14.7c3.3-3.7,7.4-5.5,12.4-5.5
	c5.9,0,10.4,2.5,13.5,7.4l23.1-7c-3.1-6.1-7.7-11.1-13.8-14.9c-6.1-3.8-13.7-5.7-22.7-5.7c-6.6,0-12.5,1.1-17.7,3.3
	c-5.2,2.2-9.6,5.1-13.1,8.8c-3.6,3.7-6.3,8-8.2,12.9c-1.9,4.9-2.8,10-2.8,15.3c0,5.3,0.9,10.4,2.8,15.3c1.9,4.9,4.6,9.2,8.2,12.9
	c3.6,3.7,8,6.7,13.2,8.9c5.2,2.2,11,3.3,17.6,3.3c9,0,16.6-1.9,22.9-5.8c6.3-3.9,10.8-8.8,13.7-14.8L515,134
	C513.8,136.3,512,138.2,509.5,139.6L509.5,139.6z"/>
</svg>
