<?xml version="1.0" encoding="utf-8"?>
<!-- Generator: Adobe Illustrator 23.0.1, SVG Export Plug-In . SVG Version: 6.00 Build 0)  -->
<svg version="1.1" id="Calque_1" xmlns="http://www.w3.org/2000/svg" xmlns:xlink="http://www.w3.org/1999/xlink" x="0px" y="0px"
	 viewBox="0 0 1756.9 476.8" style="enable-background:new 0 0 1756.9 476.8;" xml:space="preserve">
<style type="text/css">
	.st0{stroke:#000000;stroke-width:1.431;}
</style>
<path class="st0" d="M0.7,238.4V0.7L38,1.1l37.3,0.4L122.3,135c25.8,73.4,47.3,133.9,47.8,134.4c0.5,0.5,0.9-59.8,0.9-133.9V0.8h73
	v446l-4.6,0.8c-9.5,1.6-77,8.5-77.6,7.9c-0.4-0.4-20.5-56.5-44.7-124.7L73,206.7l-0.4,130.2c-0.2,71.6-0.9,130.2-1.5,130.2
	c-1.8,0-58.8,7-65,8L0.7,476L0.7,238.4z M1730.4,472.9c-11.4-1.4-27.9-3.6-36.7-5l-16-2.5l-8.5-23.1c-4.7-12.7-16.4-44.8-26.1-71.4
	c-9.7-26.6-17.9-48.3-18.4-48.3c-0.5,0-12.5,29-26.6,64.5c-14.2,35.5-26.2,64.8-26.8,65.1c-1.2,0.8-63-5-68.6-6.4l-3.8-1l45-110.2
	c24.8-60.6,45.3-111.8,45.7-113.7c0.5-2.4-12.3-39.4-38-110.6c-21.3-58.9-38.7-107.6-38.7-108.4c0-0.8,14.9-1.3,37.6-1.3l37.6,0
	l20.7,60.3c15.3,44.7,21,59.6,21.9,57.6c0.7-1.5,11.7-28.5,24.5-59.9l23.3-57.2l38.7-0.4l38.7-0.4l-44.9,109
	c-24.7,59.9-44.9,110.1-44.9,111.5c0,2.1,84.5,241.6,88.7,251.3C1756.3,476.4,1758.4,476.3,1730.4,472.9L1730.4,472.9z
	 M1417.1,439.2c-9.8-1-25.1-2.6-34-3.6l-16.1-1.7V0.8h74.4v440.6l-3.2-0.2C1436.4,441.1,1426.9,440.2,1417.1,439.2L1417.1,439.2z
	 M324,220.5V0.8h178.8v68.7h-103v115.9h88.7v70.1h-88.7v55.1c0,30.3,0.2,55.1,0.4,55.1c0.2,0,15.5-1.3,34-2.8s41.5-3.2,51.1-3.8
	l17.5-1v33.9c0,25.8-0.4,34-1.8,34.4c-1,0.3-38.2,3.2-82.6,6.4c-44.5,3.2-83.9,6.2-87.6,6.7l-6.8,0.8L324,220.5z M1203.2,424.9
	c-48-2.6-87.4-4.7-87.6-4.8c-0.2-0.1-0.4-94.5-0.4-209.8V0.8h77.3v354.4l21.8,1c28.8,1.3,64.5,3.5,73,4.5l6.8,0.8v34.2
	c0,26.5-0.4,34.2-1.8,34C1291.3,429.7,1251.2,427.5,1203.2,424.9L1203.2,424.9z M645.9,244.9V69.4h-70.1V0.8h214.6v68.7h-68.7v347.4
	l-6.8,0.8c-3.7,0.4-20.8,1.2-37.9,1.7l-31.1,0.9L645.9,244.9z M864.8,208.2V0.8h177.4v68.7H937.8v115.9h91.6v70.1h-91.6v160.2h-73
	L864.8,208.2z"/>
</svg>
