<?xml version="1.0" encoding="utf-8"?>
<!-- Generator: Adobe Illustrator 23.0.1, SVG Export Plug-In . SVG Version: 6.00 Build 0)  -->
<svg version="1.1" id="Calque_1" xmlns="http://www.w3.org/2000/svg" xmlns:xlink="http://www.w3.org/1999/xlink" x="0px" y="0px"
	 viewBox="0 0 2119 2500" style="enable-background:new 0 0 2119 2500;" xml:space="preserve">
<style type="text/css">
	.st0{fill:#27346A;}
	.st1{fill:#3A3A3A;}
	.st2{fill:#5B5B5B;}
</style>
<path class="st0" d="M1797.6,194.7C1682.2,63.2,1473.7,6.9,1207,6.9H432.9c-54.5,0-100.9,39.6-109.5,93.5L1.1,2144.6
	c-6.4,40.3,24.8,76.8,65.7,76.8h477.9l120-761.3L661,1484c8.6-53.8,54.6-93.5,109.1-93.5h227.1c446.1,0,795.5-181.2,897.5-705.4
	c3-15.5,5.7-30.6,7.9-45.3c-12.9-6.8-12.9-6.8,0,0C1933,446,1902.4,314.1,1797.6,194.7"/>
<path class="st1" d="M847.6,569.9c13.1-6.2,27.4-9.4,41.8-9.4h606.9c71.9,0,138.9,4.7,200.1,14.5c17.1,2.7,34.2,6,51.1,9.8
	c24,5.3,47.7,11.8,71.1,19.4c30.1,10.1,58.2,21.8,83.9,35.5c30.4-193.8-0.2-325.6-105-445C1682.2,63.2,1473.7,6.9,1207,6.9H432.9
	c-54.5,0-100.9,39.7-109.4,93.5L1.1,2144.5c-6.4,40.4,24.8,76.8,65.6,76.8h478l249-1579.1C798.7,610.8,818.8,583.7,847.6,569.9
	L847.6,569.9z"/>
<path class="st2" d="M1894.7,685.1c-102,524.1-451.4,705.4-897.5,705.4H770c-54.5,0-100.5,39.7-109,93.5l-149.3,946.6
	c-5.6,35.3,21.7,67.2,57.4,67.2H972c47.7,0,88.3-34.7,95.7-81.8l3.9-20.5l75.9-481.2l4.9-26.6c7.4-47.1,48-81.8,95.7-81.8h60.3
	c390.3,0,695.8-158.5,785.1-617.1c37.3-191.6,18-351.6-80.6-464c-29.9-34-67-62.1-110.3-85.1
	C1900.2,654.5,1897.7,669.6,1894.7,685.1L1894.7,685.1z"/>
<path d="M1795.8,597.1c-15.9-4.6-32-8.8-48.2-12.3c-16.9-3.7-34-7-51.1-9.7c-61.3-9.9-128.3-14.6-200.2-14.6H889.5
	c-14.5,0-28.8,3.2-41.8,9.5c-28.8,13.7-49,40.8-53.9,72.3l-129,817.8l-3.7,23.8c8.5-53.8,54.5-93.5,109-93.5h227.2
	c446.1,0,795.5-181.2,897.5-705.4c3-15.5,5.6-30.5,7.9-45.3c-25.8-13.6-53.8-25.4-83.9-35.4C1811.1,601.8,1803.5,599.4,1795.8,597.1
	"/>
</svg>
